<svg xmlns="http://www.w3.org/2000/svg" viewBox="0 0 512 512" style="height: 512px; width: 512px;"><path d="M0 0h512v512H0z" fill="url(#pattern)" fill-opacity="1"></path><svg><defs><linearGradient id="a" x1="240" y1="16" x2="240" y2="496" gradientUnits="userSpaceOnUse"><stop offset="0" stop-color="#7d787a"></stop><stop offset="1" stop-color="#423e44"></stop></linearGradient></defs><path fill="url(#a)" fill-rule="evenodd" d="M0 0h512v512H0z"></path><path d="M8 0l30.63 37.93 259.87-9.84 178.4 11.95L504 0H204.7l-10.2 8.779L159.4 0z" overflow="visible" fill="#fff" fill-opacity=".269" fill-rule="evenodd"></path><path d="M2.809 511.6l42.841-40.7L184 468.5l27.4 26.6 10.5-23.8 250.1 7 6.7 18.3 29.3 15.7z" overflow="visible" fill-opacity=".24" fill-rule="evenodd"></path><path d="M511.7 16.15l-39.1 50.39-2 324.26 10.1 19.9-7.3 53.5 20.9 9.1 18 23.8L512 215l-15.5-28.8 15.4-11.4z" overflow="visible" fill-opacity=".19" fill-rule="evenodd"></path><path d="M0 15.18L35.12 61.1l-8.61 93.8 10.19 13.9-5.13 97.4-14.85 18.9 12.62 23.3 7.5 83.9v57.4L-.743 496.5z" overflow="visible" fill="#fff" fill-opacity=".099" fill-rule="evenodd"></path><path d="M51.56 56.62L43.16 141l10.74 22.4-8.99 103.7-10.46 17.5 7.05 21.8 10.61 116.8 21.9 32.6 109.29.5 34.2-12.4 6.5 12.5 235.3 2.3 6.9-33.9-13.7-12.6 6.2-20.4-6-331.94-150-14.62-29.5 1.34-1.4 25.57-60.4-22.77z" overflow="visible" fill="#797677" fill-opacity=".434" fill-rule="evenodd"></path></svg><g class="" transform="translate(0,0)" style=""><path d="M218.4 24.72c-14.2 0-30.5 3.56-49.5 11.88 77.2 8.6 65.9 91.4 14.1 106.2-65.4 18.7-131.31-23.7-98.34-99.2-39.67 18.95-42.17 80.8-12.93 111.5C141.3 227.9 56.9 279 37.25 200.7-1.929 326.2 60.34 489.5 258.7 489.5c250.7 0 282-374.7 129.2-415.04 26.5 43.04-13.1 70.94-24.9 73.14-51.3 9.9-58.1-122.89-144.6-122.88zm37.5 118.08c4.5 0 9.4 1.1 12.8 2.9l115.9 67.1c7.4 4.1 7.4 10.9 0 15.2l-115.9 66.9c-7.2 4.3-18.5 4.3-25.7 0L126.8 228c-7.3-4.3-7.3-11.1 0-15.2L243 145.7c3.4-1.8 7.9-2.9 12.9-2.9zm-89 62.6c-21.6-.4-33.1 15-18.2 24.3 9.6 4.8 23.7 4.4 32.7-.8 8.8-5.3 9.5-13.7 1.5-19.4-4.3-2.5-10-4-16-4.1zm178.6.1c-20.8.4-31.3 15.5-16.3 24.5 9.6 4.9 23.9 4.6 33-.7 8.9-5.3 9.5-13.9 1.2-19.6-4.2-2.4-9.9-4-15.9-4.2h-2zm-89 0c-6.6-.1-13 1.5-17.7 4.2-10.2 5.6-10.4 15.1-.6 20.9 9.9 5.8 25.8 5.6 35.1-.6 15-9 4.6-24.3-16.8-24.5zm-141 41c1.5.1 3.4.5 5.6 1.6l111.5 64.5c7.2 4.1 12.9 14.2 12.9 22.5v119.7c0 8.3-5.7 11.7-12.9 7.6L121.2 398c-7.4-4.3-13.2-14.2-13.2-22.6V255.7c0-6.2 3-9.2 7.5-9.2zm281.3 0c4.2 0 7.2 3 7.2 9.2v119.7c0 8.4-6 18.3-13 22.6l-111.5 64.4c-7.2 4.1-12.9.7-12.9-7.6V335.1c0-8.3 5.7-18.4 12.9-22.5L391 248.1c2.1-1.1 4.2-1.5 5.8-1.6zm-185 65.5h-1.1c-5.3.4-8.5 4.8-8.5 11.6-.6 10.4 7.2 24.1 16.9 29.8 9.8 5.6 17.6 1.1 17.2-9.9.2-14.2-13.3-31.1-24.5-31.5zm130.9 21.8c-11.2.1-24.8 17.2-24.7 31.4.1 10.4 7.7 14.4 17.2 8.9 9.4-5.5 17-18.3 17.1-28.8 0-6.7-3.3-11.1-8.5-11.5h-1.1zm-216.9 22.5c-5.4.3-8.7 4.7-8.7 11.6-.5 10.5 7.3 24.1 17 29.8 9.8 5.5 17.6 1 17.2-10.1 0-14.5-14.1-31.8-25.5-31.3z" fill="#fff" fill-opacity="1" transform="translate(486.4, 486.4) scale(-0.9, -0.9) rotate(0, 256, 256) skewX(0) skewY(0)"></path></g></svg>